<?xml version="1.0" encoding="utf-8"?>
<!-- Generator: Adobe Illustrator 27.5.0, SVG Export Plug-In . SVG Version: 6.00 Build 0)  -->
<svg version="1.0" id="Layer_1" xmlns="http://www.w3.org/2000/svg" xmlns:xlink="http://www.w3.org/1999/xlink" x="0px" y="0px"
	 viewBox="0 0 568.26 264.77" style="enable-background:new 0 0 568.26 264.77;" xml:space="preserve">
<style type="text/css">
	.st0{fill:#F2F2F2;}
	.st1{fill-rule:evenodd;clip-rule:evenodd;fill:#EE7D00;}
	.st2{fill-rule:evenodd;clip-rule:evenodd;fill:#002F63;}
</style>
<path class="st0" d="M480.02,65.21H357.27H19.43v0.12v140.52h345.4h27.15h99.47h1.13h0.37V66.45l-0.37-0.06L490.37,66l-4.03-0.5
	c-0.79-0.07-1.6-0.13-2.41-0.17L480.02,65.21z"/>
<g>
	<g>
		<g>
			<path class="st1" d="M27.1,196.83l0-13.63c0-6.51,6.51-7,8.47-4.32c0.31,0.43,0.47,0.98,0.47,1.59c0-1.34,0.98-2.44,2.14-2.47
				h3.55c0.54,0,0.98,0.44,0.98,0.98v2.74c0,0.54-0.44,0.98-0.98,0.98h-2.27c-0.5,0-0.92,0.47-0.92,1.04l0,7.39
				c0,0.54,0.44,0.98,0.98,0.98l2.2-0.01c0.54,0,0.98,0.44,0.98,0.98l0,2.75c0,0.54-0.44,0.98-0.98,0.98h-6.37
				c-0.54,0-0.98-0.44-0.98-0.98l0-11.22c0-1.1-0.82-2.01-1.82-2.01c-1,0-1.82,0.9-1.82,2.01l0,11.22c0,0.54-0.44,0.98-0.98,0.98
				H27.1z"/>
		</g>
		<path class="st2" d="M38.03,171.88c0-0.29,0.11-0.44,0.33-0.44c0.63-0.11,1.17-0.44,1.61-0.99c0.44-0.55,0.67-1.27,0.67-2.15
			v-7.13c0-0.83-0.24-1.52-0.71-2.05c-0.47-0.54-1.03-0.81-1.66-0.81c-0.63,0-1.18,0.27-1.63,0.81c-0.45,0.54-0.68,1.22-0.68,2.05
			l0,6.89c0,0.76-0.12,1.47-0.35,2.12c-0.23,0.66-0.55,1.23-0.95,1.72c-0.4,0.49-0.87,0.88-1.41,1.16
			c-0.54,0.28-1.12,0.42-1.73,0.42c-0.61,0-1.18-0.14-1.71-0.42c-0.53-0.28-1-0.66-1.39-1.16c-0.4-0.49-0.71-1.07-0.95-1.72
			c-0.23-0.66-0.35-1.36-0.35-2.12l0-6.78c0-0.61,0.1-1.22,0.3-1.85c0.2-0.62,0.47-1.18,0.81-1.68c0.34-0.5,0.75-0.91,1.23-1.22
			c0.47-0.32,0.98-0.47,1.54-0.47c0.2,0,0.3,0.13,0.3,0.4v1.63c0,0.24-0.1,0.37-0.29,0.39c-0.5,0.1-0.92,0.36-1.27,0.81
			c-0.35,0.44-0.52,1.02-0.52,1.74l0,7.28c0,0.76,0.2,1.37,0.6,1.85c0.4,0.47,0.89,0.71,1.46,0.71c0.56,0,1.04-0.23,1.46-0.69
			c0.42-0.46,0.63-1.09,0.63-1.87v-6.98c0-0.8,0.12-1.55,0.36-2.25c0.24-0.71,0.57-1.32,0.99-1.85c0.42-0.53,0.92-0.94,1.49-1.25
			c0.57-0.31,1.18-0.46,1.85-0.46c0.66,0,1.28,0.15,1.85,0.46c0.57,0.31,1.06,0.72,1.47,1.25c0.41,0.53,0.74,1.14,0.99,1.85
			c0.25,0.71,0.37,1.46,0.37,2.25l0,6.96c0,0.7-0.11,1.4-0.33,2.09c-0.22,0.69-0.52,1.31-0.91,1.87c-0.39,0.56-0.85,1.01-1.38,1.36
			c-0.53,0.35-1.11,0.53-1.71,0.53c-0.23,0-0.35-0.14-0.35-0.43V171.88L38.03,171.88z M40.8,92.38c-0.11,0.14-0.17,0.29-0.17,0.46
			l0,12.93h-5.2l0-8.63c0-0.2-0.05-0.39-0.16-0.55c-0.1-0.16-0.24-0.24-0.4-0.24h-0.96c-0.17,0-0.3,0.08-0.4,0.24
			c-0.1,0.16-0.16,0.34-0.16,0.55l0,11.77l8.83,0c0.14,0,0.27-0.07,0.38-0.2c0.11-0.14,0.17-0.29,0.17-0.46l0-15.4
			c0-0.17-0.06-0.33-0.17-0.46c-0.11-0.14-0.24-0.2-0.38-0.2h-0.97C41.05,92.18,40.91,92.25,40.8,92.38L40.8,92.38z M29.18,92.89
			c0-0.2-0.05-0.37-0.17-0.51c-0.11-0.14-0.24-0.21-0.38-0.21h-0.97c-0.16,0-0.3,0.07-0.41,0.21c-0.11,0.14-0.17,0.31-0.17,0.51
			l0,15.35c0,0.18,0.06,0.33,0.17,0.47c0.11,0.14,0.25,0.21,0.41,0.21h1.51L29.18,92.89L29.18,92.89z M40.63,78.15L40.63,78.15
			l0,7.02l-12.86,0c-0.2,0-0.36,0.07-0.48,0.2c-0.12,0.14-0.19,0.31-0.19,0.53v1.63c0,0.22,0.06,0.4,0.19,0.55
			c0.12,0.15,0.28,0.22,0.48,0.22h12.86h0.37h0h0h0.19h0h0h0.87h0.06c0.16,0,0.3-0.05,0.41-0.14c0.11-0.1,0.17-0.2,0.17-0.33v-0.19
			l0,0l0-9.46l0,0v-0.13v-0.21c0-0.14-0.06-0.26-0.17-0.35c-0.11-0.09-0.25-0.14-0.41-0.14h-0.97c-0.14,0-0.27,0.05-0.38,0.14
			c-0.11,0.1-0.17,0.21-0.17,0.35v0.09V78.15L40.63,78.15z M40.8,112.98c-0.11,0.14-0.17,0.29-0.17,0.46l0,12.93l-5.2,0l0-8.63
			c0-0.2-0.05-0.39-0.16-0.55c-0.1-0.16-0.24-0.24-0.4-0.24h-0.96c-0.17,0-0.3,0.08-0.4,0.24c-0.1,0.16-0.16,0.34-0.16,0.55l0,11.77
			h8.83c0.14,0,0.27-0.07,0.38-0.2c0.11-0.14,0.17-0.29,0.17-0.46l0-15.4c0-0.17-0.06-0.33-0.17-0.46c-0.11-0.14-0.24-0.2-0.38-0.2
			l-0.97,0C41.05,112.77,40.91,112.84,40.8,112.98L40.8,112.98z M29.18,113.49c0-0.2-0.05-0.37-0.17-0.51
			c-0.11-0.14-0.24-0.21-0.38-0.21h-0.97c-0.16,0-0.3,0.07-0.41,0.21c-0.11,0.14-0.17,0.31-0.17,0.51l0,15.35
			c0,0.18,0.06,0.33,0.17,0.47c0.11,0.14,0.25,0.21,0.41,0.21h1.51L29.18,113.49L29.18,113.49z M27.65,152.21
			c-0.14,0-0.27-0.06-0.38-0.19c-0.11-0.12-0.17-0.29-0.17-0.49l0-17.49c0-0.2,0.06-0.36,0.17-0.49c0.11-0.12,0.24-0.19,0.38-0.19
			h0.97c0.38,0,0.57,0.22,0.57,0.67l0,17.49c0,0.2-0.06,0.36-0.17,0.49c-0.11,0.13-0.25,0.19-0.41,0.19H27.65L27.65,152.21z
			 M31.29,144.36L31.29,144.36c-0.16,0-0.29-0.07-0.4-0.22c-0.1-0.15-0.15-0.33-0.15-0.55v-1.63c0-0.22,0.05-0.39,0.15-0.53
			c0.1-0.14,0.23-0.2,0.4-0.2l10.87,0c0.16,0,0.3,0.07,0.4,0.2c0.1,0.14,0.15,0.31,0.15,0.53v1.63c0,0.22-0.05,0.4-0.15,0.55
			c-0.1,0.15-0.23,0.22-0.4,0.22H31.29z"/>
	</g>
	<path class="st2" d="M23.23,73.98c0,2.21,1.79,3.92,3.92,3.92c2.13,0,3.9-1.7,3.9-3.9c0-2.21-1.79-3.93-3.92-3.93
		C24.99,70.07,23.23,71.78,23.23,73.98L23.23,73.98z M30.29,74c0,1.79-1.41,3.17-3.14,3.17c-1.72,0-3.16-1.39-3.16-3.19
		c0-1.8,1.41-3.18,3.14-3.18C28.85,70.8,30.29,72.19,30.29,74L30.29,74z M26.43,72.31c-0.84,0-1.31,0.57-1.31,1.57l0,1.58h3.82
		v-0.73h-1.13v-0.86v-0.14l1.13-0.68l0-0.83l-1.26,0.86C27.46,72.59,27.02,72.31,26.43,72.31L26.43,72.31z M25.71,74.74v-0.86
		c0-0.55,0.25-0.88,0.72-0.88c0.48,0,0.76,0.32,0.76,0.88v0.86H25.71z"/>
</g>
<g>
	<path class="st1" d="M526.05,165.13v32c0,4.87-3.95,8.81-8.82,8.81h-24.65c-0.22,0-0.45-0.01-0.66-0.04c-0.02,0.01-0.03,0-0.05,0
		c-0.14-0.01-0.28-0.03-0.42-0.05c-4.3-0.58-7.6-4.26-7.6-8.72v-20.45c0-4.56-4.2-8.27-9.33-8.27h-66.25c-4.88,0-8.82,3.97-8.8,8.84
		l0.06,19.85c0.02,4.45-3.27,8.14-7.55,8.75c-0.41,0.06-0.83,0.09-1.25,0.09h-24.65c-0.43,0-0.85-0.03-1.25-0.09
		c-4.28-0.61-7.56-4.28-7.56-8.72V139.7c0-4.87,3.94-8.81,8.81-8.81h100.55c9.88,0,17.98-7.39,17.98-16.42
		c0-9.03-8.1-16.42-17.98-16.42H366.08c-4.87,0-8.81-3.95-8.81-8.81V65.21h122.75c1.34,0.01,2.64,0.05,3.91,0.12
		c0.81,0.04,1.62,0.1,2.41,0.17l4.03,0.5l0.63,0.08l0.04,0.01l0.83,0.1c0.02,0,0.03,0,0.05,0.01c46.37,7.76,48.36,59.06,26.2,75.38
		c-3.86,2.84-8.83,4.27-14.22,4.27C515.93,145.85,525.8,154.64,526.05,165.13z"/>
</g>
</svg>
